<svg xmlns="http://www.w3.org/2000/svg" width="720" height="480" viewBox="0 0 720 480" fill="none">
  <g stroke="#ff1688" stroke-opacity=".16" stroke-width="1.2">
    <path d="M-40 84c88-65 160-55 220-11s126 53 205 9 158-43 253 13 134 38 171 3"/>
    <path d="M-45 116c89-61 164-51 224-9s126 50 207 8 162-39 255 15 132 34 170 1"/>
    <path d="M-38 151c84-55 157-47 218-8s131 47 210 8 157-37 249 13 135 33 175 2"/>
    <path d="M-54 204c97-65 177-52 239-5s122 57 198 22 147-38 239 7 143 41 194 10"/>
    <path d="M-48 241c91-61 170-50 233-6s125 54 203 19 151-36 240 8 139 38 187 7"/>
    <path d="M-53 281c94-58 173-47 236-5s126 52 205 18 153-33 241 9 137 36 184 4"/>
    <path d="M-57 342c99-70 183-58 247-8s120 61 196 26 145-42 237 5 146 46 200 17"/>
    <path d="M-50 382c94-64 176-54 240-7s123 58 201 23 149-39 239 7 142 42 192 12"/>
    <path d="M-44 420c89-58 168-50 232-7s126 54 204 20 152-36 240 8 138 38 186 7"/>
    <path d="M238 168c27-30 72-42 112-26 40 15 67 56 54 91-13 36-66 52-112 37-46-14-82-59-54-102Z"/>
    <path d="M267 180c21-20 53-27 80-16 28 11 46 39 37 61-10 23-45 32-76 22-31-9-61-39-41-67Z"/>
    <path d="M292 192c13-12 32-16 48-10 17 7 28 23 22 37-6 14-27 19-45 13-19-6-37-23-25-40Z"/>
  </g>
</svg>
