<?xml version="1.0" standalone="no"?>
<!DOCTYPE svg PUBLIC "-//W3C//DTD SVG 20010904//EN"
 "http://www.w3.org/TR/2001/REC-SVG-20010904/DTD/svg10.dtd">
<svg version="1.0" xmlns="http://www.w3.org/2000/svg"
 width="758.000000pt" height="1085.000000pt" viewBox="0 0 758.000000 1085.000000"
 preserveAspectRatio="xMidYMid meet">

<g transform="translate(0.000000,1085.000000) scale(0.100000,-0.100000)"
fill="#000000" stroke="none">
<path d="M1543 9589 c-173 -29 -327 -149 -405 -317 -22 -48 -56 -108 -74 -133
-44 -61 -82 -143 -90 -196 l-6 -43 -72 0 c-117 -1 -181 -44 -259 -176 -21 -34
-58 -88 -83 -120 -96 -122 -116 -211 -70 -311 14 -28 34 -56 45 -63 18 -9 21
-20 22 -88 1 -101 34 -185 84 -212 18 -10 22 -21 23 -74 0 -35 6 -83 12 -107
15 -60 117 -263 145 -291 24 -24 45 -85 45 -128 0 -37 -45 -127 -96 -192 -24
-31 -48 -67 -53 -79 -12 -33 4 -91 31 -113 31 -24 106 -16 151 17 64 48 61 57
55 -129 -6 -185 -6 -183 -93 -344 -82 -153 -130 -360 -123 -540 5 -148 32
-214 114 -285 63 -54 152 -102 207 -111 30 -5 38 -12 43 -33 3 -14 8 -33 10
-41 2 -8 11 -69 19 -135 18 -144 28 -193 65 -350 16 -66 36 -192 45 -280 9
-88 23 -191 30 -230 13 -62 30 -159 66 -390 7 -38 22 -113 35 -165 19 -79 73
-334 91 -430 3 -14 16 -77 30 -140 14 -63 29 -142 34 -175 11 -77 54 -264 90
-390 15 -55 40 -145 54 -200 15 -55 42 -149 61 -209 19 -60 34 -117 34 -127 0
-33 87 -189 147 -261 118 -145 334 -297 563 -396 316 -137 400 -167 640 -228
93 -23 124 -26 265 -25 88 0 212 7 275 16 63 8 252 30 419 50 409 47 486 60
625 106 166 54 306 141 501 309 148 128 227 222 368 435 46 70 98 203 112 286
4 24 16 78 28 119 18 66 20 100 19 296 l-1 222 44 11 c24 6 80 11 123 11 167
0 339 -49 514 -146 87 -48 197 -94 225 -94 10 0 45 -9 78 -19 127 -39 412 -34
529 9 106 40 159 135 136 244 -6 30 -15 58 -20 61 -5 3 2 24 16 48 16 28 24
58 24 89 0 41 -5 54 -37 89 -30 33 -34 42 -22 50 8 5 19 9 25 9 17 0 64 51 85
92 35 68 21 197 -28 250 -13 15 -14 20 -2 34 8 10 13 42 12 90 -3 190 -104
244 -429 230 -180 -7 -164 -24 -164 165 0 123 3 148 34 292 28 130 -2 224 -79
243 -50 12 -130 -21 -188 -79 -75 -76 -108 -148 -146 -317 -115 -520 -116
-521 -215 -617 -69 -68 -77 -72 -172 -101 -141 -44 -180 -51 -263 -52 l-74 0
7 98 c12 165 -17 746 -55 1102 -11 102 -29 271 -40 375 -31 297 -78 651 -130
980 -17 105 -44 280 -60 390 -16 110 -36 232 -44 270 -42 203 -75 391 -85 480
-13 117 -59 320 -96 420 -60 164 -152 303 -326 489 -126 135 -129 138 -212
301 -71 138 -107 179 -229 271 -85 63 -339 145 -552 178 -169 26 -426 38 -737
34 l-297 -3 -33 55 c-61 101 -217 209 -355 245 -129 34 -330 10 -458 -54 -67
-34 -82 -38 -90 -26 -5 8 -25 39 -44 69 -44 69 -113 116 -194 133 -69 14 -80
14 -154 2z m159 -80 c46 -12 89 -54 122 -121 32 -64 33 -107 3 -156 -53 -85
-58 -132 -15 -132 35 0 45 10 79 79 41 82 93 132 183 176 208 102 457 63 620
-98 32 -32 57 -60 54 -62 -2 -2 -21 0 -43 5 -70 16 -133 12 -155 -10 -32 -32
-16 -50 45 -50 72 0 178 -34 220 -71 19 -17 49 -60 66 -96 28 -60 31 -73 27
-137 -4 -54 -11 -83 -31 -117 -15 -25 -27 -53 -27 -63 0 -27 27 -30 60 -6 l30
21 0 -23 c0 -48 -92 -212 -157 -280 -34 -35 -37 -36 -59 -22 -28 19 -73 15
-88 -8 -9 -15 -5 -23 22 -47 29 -27 32 -35 32 -87 0 -38 -7 -72 -21 -100 -25
-52 -132 -148 -280 -250 -91 -63 -119 -89 -160 -148 -28 -39 -64 -100 -80
-136 -50 -108 -85 -156 -130 -174 -22 -9 -48 -16 -59 -16 -11 0 -66 23 -123
52 l-102 52 -100 0 c-55 1 -113 -3 -130 -7 l-29 -8 19 21 c11 12 32 29 47 38
34 20 43 41 24 60 -26 26 -71 5 -139 -67 -58 -61 -68 -79 -106 -183 -43 -118
-81 -177 -131 -203 -41 -21 -166 -54 -243 -64 -48 -7 -78 -17 -102 -35 -41
-32 -45 -32 -45 -3 0 13 20 49 44 80 107 137 125 198 96 308 -27 104 -26 169
6 239 31 69 29 94 -8 98 -22 3 -33 -5 -57 -38 -16 -23 -33 -54 -36 -71 -4 -16
-10 -29 -15 -29 -5 0 -23 37 -41 83 -58 147 -43 280 40 363 19 20 45 34 70 38
45 7 58 27 32 50 -20 18 -67 21 -105 6 -33 -12 -102 -84 -126 -129 l-17 -35
-16 30 c-25 49 -30 121 -14 200 36 169 161 321 280 339 66 10 77 15 77 35 0
46 -86 50 -177 8 -69 -31 -170 -138 -218 -228 l-39 -75 -14 49 c-18 62 -10
103 33 163 18 26 68 99 110 161 89 133 115 152 201 152 l61 0 6 -60 c9 -79 30
-127 62 -142 24 -11 29 -9 44 11 16 21 16 27 4 65 -21 59 -27 162 -14 231 23
121 99 230 204 293 78 47 126 57 210 42 53 -9 71 -9 82 0 19 16 19 44 -1 61
-21 17 -203 12 -262 -7 -24 -9 -46 -14 -48 -12 -7 8 43 67 82 99 97 77 210
122 284 113 25 -3 62 -10 82 -15z m1937 -419 c192 -13 307 -33 479 -80 186
-52 257 -85 341 -160 89 -79 110 -125 118 -261 l6 -101 -78 -75 c-144 -137
-214 -164 -496 -192 -112 -12 -265 -30 -339 -41 -74 -11 -175 -25 -223 -30
-48 -6 -109 -15 -135 -19 -26 -5 -83 -12 -127 -15 -67 -5 -77 -4 -61 6 96 65
219 223 256 332 30 85 38 212 16 254 -25 49 -74 100 -135 141 -77 52 -120 65
-197 57 -59 -6 -64 -5 -64 13 0 25 -34 105 -60 141 -11 16 -20 31 -20 34 0 10
563 7 719 -4z m-474 -274 c54 -25 116 -86 142 -141 14 -29 15 -44 4 -106 -18
-109 -42 -169 -100 -250 -93 -129 -196 -187 -349 -197 l-83 -5 3 39 3 38 55 3
c143 8 227 41 310 122 105 103 146 230 105 322 -28 61 -125 119 -200 119 -25
0 -34 6 -44 27 -11 23 -10 29 5 40 27 20 94 15 149 -11z m-37 -152 c26 -17 52
-70 52 -108 0 -87 -93 -216 -185 -257 -55 -24 -149 -42 -176 -34 -18 6 -16 11
25 55 85 91 177 250 192 333 6 37 8 39 37 33 17 -4 42 -13 55 -22z m1757 -394
c105 -119 184 -242 230 -361 l25 -63 -23 -33 c-40 -60 -178 -153 -337 -228
-30 -14 -77 -37 -105 -51 -51 -25 -171 -71 -280 -106 -33 -10 -94 -30 -136
-43 -83 -27 -281 -70 -369 -80 -30 -4 -91 -13 -135 -21 -125 -22 -371 -44
-595 -54 -113 -5 -344 -16 -515 -24 -366 -19 -481 -20 -630 -6 -237 23 -493
52 -550 63 -55 11 -60 14 -57 37 4 40 28 67 87 96 52 25 63 26 135 21 70 -6
91 -12 175 -57 58 -30 109 -50 128 -50 47 0 142 25 172 44 31 20 85 103 133
201 65 134 88 161 201 240 58 40 137 100 174 133 l69 59 111 16 c62 9 202 26
312 37 110 11 206 23 213 25 8 3 89 14 180 25 92 11 173 22 180 25 7 3 63 9
125 15 200 18 432 50 488 66 97 28 185 83 279 171 50 47 93 96 96 109 6 23 12
18 88 -63 46 -49 104 -113 131 -143z m309 -613 c9 -40 23 -127 31 -192 7 -66
36 -237 63 -380 28 -143 53 -290 57 -327 4 -38 18 -130 31 -205 33 -186 130
-862 144 -998 6 -60 17 -166 25 -235 8 -69 19 -170 25 -225 5 -55 17 -161 25
-236 36 -326 48 -821 38 -1573 l-6 -428 -36 -25 c-237 -160 -407 -256 -551
-312 -343 -134 -518 -167 -985 -190 -104 -5 -275 -21 -380 -35 -462 -64 -734
-79 -1115 -64 -411 17 -517 28 -650 65 l-59 16 -35 106 c-19 59 -46 154 -61
211 -14 58 -34 132 -45 165 -22 69 -78 319 -109 480 -11 61 -32 164 -46 230
-14 66 -37 176 -50 245 -14 69 -34 157 -44 195 -10 39 -26 115 -35 170 -8 55
-22 143 -30 195 -8 52 -22 127 -30 165 -16 74 -31 188 -46 348 -5 54 -20 140
-34 190 -26 98 -46 205 -71 377 -8 58 -18 117 -21 133 -5 23 -3 27 16 27 13 0
40 18 65 43 35 34 45 53 55 102 25 118 -10 337 -100 642 -27 91 -54 197 -60
236 -24 160 -31 216 -36 302 -3 50 -10 95 -15 100 -10 10 -16 5 -55 -49 -20
-28 -24 -17 -17 42 5 50 7 52 42 61 20 5 55 15 78 20 57 15 131 68 168 118 22
32 35 41 50 38 11 -3 97 -16 191 -30 324 -47 606 -62 899 -45 314 17 600 31
720 34 217 6 638 57 885 108 208 42 542 149 635 202 22 13 58 29 80 36 22 7
63 27 90 44 28 18 65 38 83 45 18 8 52 29 75 47 23 19 47 34 52 34 6 0 24 11
40 25 17 13 33 24 36 25 4 0 14 -33 23 -73z m-4125 -1064 c6 -43 30 -143 53
-223 95 -337 122 -479 116 -617 -4 -90 -6 -97 -32 -120 -24 -20 -35 -23 -75
-18 -119 16 -229 86 -268 172 -80 174 -37 461 111 745 39 76 74 138 77 138 3
0 11 -35 18 -77z m5702 -1734 c15 -29 7 -128 -21 -254 -18 -84 -21 -121 -17
-230 2 -71 7 -137 10 -145 5 -11 -13 -27 -60 -55 -69 -42 -133 -112 -164 -180
-35 -76 -21 -173 33 -232 l20 -21 -40 -41 c-51 -53 -72 -98 -72 -155 0 -39 5
-51 38 -86 22 -22 46 -40 56 -40 13 0 15 -7 10 -39 -7 -45 6 -76 48 -112 l31
-26 -37 -52 c-32 -48 -40 -69 -39 -108 1 -20 -10 -16 -117 42 -211 116 -325
147 -530 149 -74 1 -148 -3 -163 -7 l-28 -8 5 228 4 228 61 1 c138 3 306 42
413 95 45 23 163 141 188 189 27 53 65 180 95 320 84 389 102 446 162 502 27
25 80 58 95 58 4 0 12 -10 19 -21z m484 -709 c57 -30 84 -70 87 -128 2 -62
-18 -78 -105 -85 -39 -3 -106 -17 -147 -30 -41 -14 -111 -32 -155 -41 -44 -9
-122 -28 -173 -41 -127 -34 -129 -33 -153 19 -36 82 5 193 93 254 107 73 143
81 348 79 145 -2 159 -4 205 -27z m88 -308 c57 -54 59 -151 5 -197 -64 -54
-83 -59 -243 -61 -208 -3 -373 -34 -447 -85 -33 -24 -60 -24 -81 -1 -49 54
-21 136 65 195 65 45 135 69 292 102 102 22 186 44 256 69 8 3 41 4 72 3 43
-3 64 -9 81 -25z m-107 -358 c39 -23 50 -37 57 -67 12 -50 -5 -89 -51 -121
-60 -40 -240 -72 -360 -64 -114 8 -222 75 -222 138 0 35 47 79 111 103 66 25
221 46 325 43 82 -2 97 -5 140 -32z m42 -332 c3 -55 0 -64 -25 -91 -34 -38
-106 -57 -248 -65 -115 -7 -228 6 -291 33 -36 16 -44 25 -49 55 -5 26 -2 44
12 68 21 36 43 40 118 19 79 -21 324 -2 420 33 22 8 45 13 50 12 6 -1 11 -30
13 -64z m-1651 -409 c-3 -10 -15 -61 -27 -113 -60 -255 -78 -292 -242 -516
-140 -191 -442 -431 -643 -512 -90 -36 -265 -70 -500 -96 -27 -3 -183 -22
-345 -41 -174 -20 -363 -36 -460 -39 -149 -3 -176 -1 -275 21 -155 35 -304 85
-495 166 -343 144 -498 243 -632 402 -57 67 -128 180 -128 203 0 7 18 5 53 -4
99 -26 309 -44 627 -55 423 -15 523 -9 1080 62 136 18 326 34 453 39 227 10
492 43 627 79 258 69 545 190 700 296 100 69 192 125 203 125 5 0 6 -8 4 -17z"/>
<path d="M2145 9191 c-48 -12 -93 -39 -136 -82 -55 -55 -51 -76 15 -70 10 0
35 15 54 32 67 59 149 74 182 34 17 -20 53 -19 73 3 16 17 15 20 -11 45 -44
42 -105 55 -177 38z"/>
<path d="M2475 9106 c-26 -19 -13 -44 29 -51 67 -13 142 -98 161 -183 15 -69
-2 -118 -61 -179 -30 -31 -54 -62 -54 -69 0 -17 54 -28 78 -15 30 16 103 102
119 139 39 94 3 227 -81 298 -86 72 -148 92 -191 60z"/>
<path d="M1409 9100 c-87 -15 -175 -78 -167 -119 5 -27 52 -25 86 4 39 33 93
55 134 55 30 0 57 -6 180 -42 52 -14 90 -4 86 25 -7 48 -209 97 -319 77z"/>
<path d="M2019 8979 c-99 -11 -218 -78 -265 -149 -17 -25 -40 -43 -68 -54 -29
-11 -50 -28 -67 -55 -20 -32 -33 -41 -72 -50 -106 -24 -229 -101 -291 -182
-39 -50 -106 -178 -106 -202 0 -18 41 -33 64 -24 8 3 35 45 60 94 25 48 57
100 71 115 58 63 196 138 252 138 49 0 114 -29 150 -66 18 -19 36 -34 40 -34
17 0 53 32 53 46 0 23 -49 64 -107 91 l-53 24 17 26 c17 25 19 25 95 20 72 -6
116 -21 170 -59 21 -15 71 0 76 23 4 24 -94 87 -148 95 -74 11 -77 17 -29 56
70 57 121 79 186 81 135 4 205 -29 267 -128 38 -59 63 -69 101 -41 16 11 17
18 8 37 -25 54 -78 112 -134 149 -57 36 -73 41 -179 54 -14 1 -55 -1 -91 -5z"/>
<path d="M2252 8488 c-14 -14 -16 -44 -3 -53 5 -3 19 -35 31 -71 32 -95 25
-177 -24 -281 -52 -109 -76 -142 -162 -214 -78 -67 -94 -101 -54 -114 25 -8
53 9 138 84 123 108 214 285 215 416 2 151 -83 291 -141 233z"/>
<path d="M935 8476 c-99 -45 -196 -234 -136 -266 44 -23 81 1 81 53 0 43 36
113 70 137 24 17 39 20 77 15 26 -3 55 -1 63 4 13 9 13 14 0 38 -14 25 -22 28
-70 30 -30 2 -68 -3 -85 -11z"/>
<path d="M1599 8449 c-50 -70 -33 -206 36 -287 63 -73 164 -90 275 -46 52 21
66 45 42 74 l-18 22 -52 -26 c-61 -31 -96 -33 -139 -6 -64 39 -86 116 -71 260
3 31 0 35 -23 38 -21 2 -32 -4 -50 -29z"/>
<path d="M1263 8256 c-93 -30 -186 -115 -232 -216 -40 -87 -49 -150 -24 -171
25 -22 45 -27 68 -19 17 6 20 16 21 71 1 106 67 205 173 260 40 20 48 21 90
10 25 -7 53 -19 62 -27 22 -20 66 -18 78 5 9 16 5 24 -25 46 -37 28 -111 56
-148 54 -12 0 -40 -6 -63 -13z"/>
<path d="M1315 7978 c-18 -16 -27 -37 -31 -71 -7 -47 -6 -49 42 -95 27 -26 72
-58 99 -71 45 -21 60 -23 145 -18 143 8 238 48 296 124 24 32 25 35 10 58 -9
14 -21 25 -26 25 -5 0 -32 -22 -59 -49 -95 -94 -245 -120 -349 -60 -60 34 -73
58 -65 119 4 30 2 45 -8 51 -20 13 -25 11 -54 -13z"/>
<path d="M1164 7641 c-41 -25 -101 -104 -115 -152 -17 -56 -3 -126 31 -161 33
-33 40 -34 70 -10 22 17 22 19 6 50 -18 36 -21 113 -5 145 6 12 22 34 36 48
21 23 30 25 71 21 35 -3 51 0 61 11 17 21 7 36 -35 53 -46 19 -83 18 -120 -5z"/>
<path d="M3982 6649 c-78 -13 -129 -43 -213 -128 -133 -134 -223 -292 -282
-496 -43 -147 -52 -219 -52 -410 0 -179 0 -181 32 -264 86 -223 194 -347 363
-415 72 -29 81 -31 215 -30 191 0 292 27 415 109 138 92 189 233 190 518 0
187 -82 570 -153 712 -67 135 -247 330 -349 378 -67 32 -100 37 -166 26z m107
-79 c63 -29 194 -161 262 -263 90 -135 159 -367 194 -647 15 -121 11 -243 -11
-385 -21 -133 -119 -230 -281 -278 l-51 -15 15 36 c53 125 78 355 54 499 -25
144 -112 267 -227 320 -160 73 -269 -72 -311 -416 -14 -123 -14 -142 0 -230 9
-53 19 -105 22 -116 11 -33 -79 71 -119 138 -87 147 -122 289 -111 452 27 420
169 735 399 886 67 45 100 48 165 19z"/>
<path d="M2664 6365 c-74 -23 -119 -52 -185 -122 -107 -110 -222 -303 -273
-457 -47 -138 -55 -408 -17 -558 43 -169 101 -281 186 -356 56 -49 215 -128
290 -143 73 -15 226 -14 274 2 59 19 167 96 224 160 104 117 195 332 211 501
12 115 -44 418 -95 519 -99 197 -298 408 -429 454 -51 18 -129 18 -186 0z
m174 -76 c61 -30 155 -120 239 -231 122 -160 153 -240 188 -483 26 -182 10
-312 -57 -454 l-31 -66 -9 95 c-23 264 -80 401 -202 485 -72 49 -105 50 -174
6 -128 -82 -209 -317 -182 -524 13 -98 48 -264 60 -287 15 -28 13 -29 -19 -20
-70 20 -185 87 -225 131 -116 129 -186 395 -164 626 13 133 30 204 76 311 91
211 239 388 351 423 47 14 104 9 149 -12z"/>
<path d="M3508 4733 c-8 -10 -25 -35 -37 -56 -26 -42 -105 -99 -201 -144 -36
-16 -105 -56 -153 -87 -164 -107 -218 -221 -171 -360 19 -57 67 -92 173 -128
124 -42 293 -21 473 58 31 13 90 33 130 43 66 17 73 21 76 45 3 20 -3 29 -23
38 -22 10 -42 6 -143 -26 -64 -21 -145 -49 -180 -62 -35 -14 -89 -28 -120 -32
-102 -13 -235 11 -287 52 -25 20 -29 31 -33 87 -4 59 -1 68 30 114 40 59 131
124 283 203 123 63 188 120 223 195 18 38 20 52 11 63 -15 19 -33 18 -51 -3z"/>
<path d="M4344 3775 c-15 -23 -15 -27 0 -50 9 -14 31 -39 50 -57 l34 -32 -26
-40 c-38 -62 -193 -244 -260 -306 -68 -64 -195 -142 -277 -170 -112 -39 -220
-52 -370 -47 -120 4 -155 9 -247 36 -101 30 -242 89 -353 148 -27 15 -93 48
-147 74 -53 26 -99 52 -102 58 -4 6 10 19 31 30 21 11 62 44 91 74 57 57 65
89 30 111 -15 9 -25 2 -65 -43 -62 -71 -146 -124 -230 -146 -77 -21 -93 -30
-93 -56 0 -27 10 -29 86 -17 l69 10 77 -44 c274 -154 419 -221 598 -276 114
-35 117 -35 295 -35 257 0 328 19 522 135 115 69 315 266 374 368 23 41 44 77
46 79 1 2 29 -8 62 -23 67 -30 93 -32 111 -11 20 24 4 43 -64 74 -70 31 -124
82 -157 144 -24 45 -60 51 -85 12z"/>
</g>
</svg>
